<?xml version="1.0" encoding="UTF-8" standalone="no"?>
<svg
   xmlns:dc="http://purl.org/dc/elements/1.1/"
   xmlns:cc="http://creativecommons.org/ns#"
   xmlns:rdf="http://www.w3.org/1999/02/22-rdf-syntax-ns#"
   xmlns:svg="http://www.w3.org/2000/svg"
   xmlns="http://www.w3.org/2000/svg"
   id="svg55995"
   version="1.1"
   viewBox="0 0 422.53957 422.5396"
   height="1597"
   width="1597">
  <defs
     id="defs55989">
    <filter
       height="2.0763559"
       width="4.2459979"
       y="-0.55938005"
       x="-1.3903795"
       id="filter1135"
       style="color-interpolation-filters:sRGB">
      <feFlood
         id="feFlood1125"
         result="flood"
         flood-color="rgb(0,0,0)"
         flood-opacity="0.2" />
      <feComposite
         id="feComposite1127"
         result="composite1"
         operator="in"
         in2="SourceGraphic"
         in="flood" />
      <feGaussianBlur
         id="feGaussianBlur1129"
         result="blur"
         stdDeviation="10"
         in="composite1" />
      <feOffset
         id="feOffset1131"
         result="offset"
         dy="0"
         dx="0" />
      <feComposite
         id="feComposite1133"
         result="composite2"
         operator="over"
         in2="offset"
         in="SourceGraphic" />
    </filter>
    <filter
       height="2.0763559"
       width="4.2459979"
       y="-0.55938005"
       x="-1.3903795"
       id="filter55967"
       style="color-interpolation-filters:sRGB">
      <feFlood
         id="feFlood55957"
         result="flood"
         flood-color="rgb(0,0,0)"
         flood-opacity="0.2" />
      <feComposite
         id="feComposite55959"
         result="composite1"
         operator="in"
         in2="SourceGraphic"
         in="flood" />
      <feGaussianBlur
         id="feGaussianBlur55961"
         result="blur"
         stdDeviation="10"
         in="composite1" />
      <feOffset
         id="feOffset55963"
         result="offset"
         dy="0"
         dx="0" />
      <feComposite
         id="feComposite55965"
         result="composite2"
         operator="over"
         in2="offset"
         in="SourceGraphic" />
    </filter>
    <clipPath
       id="clipPath56636"
       clipPathUnits="userSpaceOnUse">
      <circle
         r="245.54417"
         cy="-157.25929"
         cx="-885.92554"
         id="circle56638"
         style="fill:#000000;stroke-width:0.264584;stroke-linecap:round;stroke-linejoin:round;stop-color:#000000" />
    </clipPath>
  </defs>
  <metadata
     id="metadata55992">
    <rdf:RDF>
      <cc:Work
         rdf:about="">
        <dc:format>image/svg+xml</dc:format>
        <dc:type
           rdf:resource="http://purl.org/dc/dcmitype/StillImage" />
        <dc:title></dc:title>
      </cc:Work>
    </rdf:RDF>
  </metadata>
  <path
     d="m 242.04356,229.38407 -32.9953,19.05 42.509,73.62703 h 43.9937 z"
     style="display:inline;fill:#8e110b;fill-opacity:0.980392;stroke:none;stroke-width:0.79375;stroke-linecap:round;stroke-linejoin:round;stop-color:#000000"
     id="path55756" />
  <g
     clip-path="url(#clipPath56636)"
     style="stroke-width:1.16223"
     transform="matrix(0.86041458,0,0,0.86041458,973.53302,346.57798)"
     id="g55941" />
  <path
     d="m 156.68396,100.47875 a 19.049999,19.049999 0 0 0 -0.1886,5.3e-4 19.049999,19.049999 0 0 0 -16.3711,9.525 19.049999,19.049999 0 0 0 -2.5523,9.525 v 92.57056 l 38.1,-21.99708 v -37.57809 l 32.5437,18.78904 14.5521,8.40156 -47.0958,27.19109 v -5e-4 l -28.575,16.4977 v 5e-4 a 19.050001,19.050001 0 0 0 -9.525,16.49772 v 32.9954 49.16392 h 38.1 v -71.16104 l 94.7131,-54.68244 a 19.05,19.05 0 0 0 0.083,-0.0481 19.05,19.05 0 0 0 6.953,-7.03469 19.05,19.05 0 0 0 -0.063,-18.94047 19.05,19.05 0 0 0 -6.9727,-6.97269 v -0.007 l -104.2417,-60.18393 a 19.049999,19.049999 0 0 0 -0.083,-0.0475 19.049999,19.049999 0 0 0 -9.3803,-2.50476 z"
     style="display:inline;fill:#8e110b;fill-opacity:0.980392;stroke:none;stroke-width:0.79375;stroke-linecap:round;stroke-linejoin:round;stop-color:#000000"
     id="path55754" />
</svg>
